<?xml version="1.0" encoding="UTF-8"?>
<!-- Created with Inkscape (http://www.inkscape.org/) -->
<svg width="500" height="500" version="1.1" viewBox="0 0 500 500" xmlns="http://www.w3.org/2000/svg" xmlns:xlink="http://www.w3.org/1999/xlink">
 <defs>
  <clipPath id="clipPath942">
   <path d="m454.51 320h653.12v659.38h-653.12z" clip-rule="evenodd"/>
  </clipPath>
  <linearGradient id="linearGradient7084" x1="155.95" x2="267.43" y1="1.5928" y2="1.5928" gradientTransform="matrix(0 1.9045 -1.9037 0 258.36 -249.33)" gradientUnits="userSpaceOnUse">
   <stop stop-color="#5193ae" offset="0"/>
   <stop stop-color="#06edf4" offset="1"/>
  </linearGradient>
 </defs>
 <path d="m150.59 139.64c1.4872-10.641 5.3094-22.585 10.59-33.092 28.412-56.53 99.956-75.506 152.68-40.496 21.663 14.385 37.829 37.64 44.242 63.645 3.2444 13.156 3.4966 34.629 0.55007 46.833-9.5322 39.481-38.729 69.501-77.741 79.932-13.764 3.6803-37.363 3.6438-51.306-0.0797-19.61-5.2362-35.124-14.274-49.178-28.647-14.495-14.825-23.404-30.916-28.096-50.743-2.2481-9.501-3.0953-27.669-1.742-37.352z" fill="url(#linearGradient7084)" style="paint-order:stroke markers fill"/>
 <g transform="matrix(.6092 0 0 .57699 -218.76 -107.52)">
  <g clip-path="url(#clipPath942)">
   <g transform="matrix(.43857 0 0 -.43857 454.51 978.05)" fill="#fff">
    <path d="m905 1181c-55-21-100-42-100-47s9-35 20-67c18-56 20-57 49-51l31 5 53-143c29-79 52-146 52-149 0-11-142-61-149-53-4 5-18 38-31 74s-27 75-31 87c-8 20-11 22-34 11-18-8-35-8-58-1l-33 10-33-94c-18-51-36-93-41-93-11 0-114 42-124 51-5 4 10 59 34 124l43 117 32-5c31-5 32-4 48 46 9 28 13 54 9 58-12 11-200 74-205 69-2-3-30-78-62-168-33-90-62-168-66-174-6-10-85 10-117 30-20 13 24 122 50 122 20 0 45 48 31 60-4 4-33 17-64 28l-55 20-76-206c-41-114-75-207-74-208s166-110 368-242l368-241 167 109c92 60 171 106 174 102 4-4 33-87 65-184l59-178h255l-34 93c-19 50-59 160-90 244s-56 156-56 160 47 39 104 76l103 68-46 127c-26 70-53 146-60 170-8 23-17 42-20 42s-34-10-67-23c-56-20-61-24-53-44 6-15 17-23 33-23 17 0 27-8 34-29 10-28 9-28-56-52-36-13-69-25-73-27-5-2-60 143-146 391-9 26-19 47-22 47-4-1-51-18-106-39z"/>
    <path d="m100 223c-41-113-76-209-78-214s48-9 121-9h125l40 113c53 150 65 188 60 191-1 2-46 30-98 63l-95 59z"/>
   </g>
  </g>
 </g>
</svg>
