<!-- Generated by IcoMoon.io -->
<svg version="1.1" xmlns="http://www.w3.org/2000/svg" width="1024" height="1024" viewBox="0 0 1024 1024">
<g id="icomoon-ignore">
</g>
<path fill="#fff" d="M620.896 122.199c-37.547 14.336-68.267 28.672-68.267 32.085s6.144 23.893 13.653 45.739c12.288 38.229 13.653 38.912 33.451 34.816l21.163-3.413 36.181 97.621c19.797 53.931 35.499 99.669 35.499 101.717 0 7.509-96.939 41.643-101.717 36.181-2.731-3.413-12.288-25.941-21.163-50.517s-18.432-51.2-21.163-59.392c-5.461-13.653-7.509-15.019-23.211-7.509-12.288 5.461-23.893 5.461-39.595 0.683l-22.528-6.827-22.528 64.171c-12.288 34.816-24.576 63.488-27.989 63.488-7.509 0-77.824-28.672-84.651-34.816-3.413-2.731 6.827-40.277 23.211-84.651l29.355-79.872 21.845 3.413c21.163 3.413 21.845 2.731 32.767-31.403 6.144-19.115 8.876-36.864 6.144-39.595-8.192-7.509-136.533-50.517-139.947-47.104-1.365 2.048-20.48 53.248-42.325 114.688-22.528 61.44-42.325 114.688-45.056 118.784-4.096 6.827-58.027-6.827-79.872-20.48-13.653-8.876 16.384-83.285 34.133-83.285 13.653 0 30.72-32.767 21.163-40.96-2.731-2.731-22.528-11.605-43.691-19.115l-37.547-13.653-51.883 140.629c-27.989 77.824-51.2 141.312-50.517 141.995s113.323 75.093 251.221 165.205l251.221 164.523 114.005-74.411c62.805-40.96 116.736-72.363 118.784-69.632 2.731 2.731 22.528 59.392 44.373 125.611l40.277 121.515h174.080l-23.211-63.488c-12.971-34.133-40.277-109.227-61.44-166.571s-38.229-106.496-38.229-109.227c0-2.731 32.085-26.624 70.997-51.883l70.315-46.421-31.403-86.699c-17.749-47.787-36.181-99.669-40.96-116.054-5.461-15.701-11.605-28.672-13.653-28.672s-23.211 6.827-45.739 15.701c-38.229 13.653-41.643 16.384-36.181 30.037 4.096 10.24 11.605 15.701 22.528 15.701 11.605 0 18.432 5.461 23.211 19.797 6.827 19.115 6.144 19.115-38.229 35.499-24.576 8.876-47.104 17.067-49.835 18.432-3.413 1.365-40.96-97.621-99.669-266.923-6.144-17.749-12.971-32.085-15.019-32.085-2.731 0.683-34.816 12.288-72.363 26.624z"></path>
<path fill="#fff" d="M71.35 776.193c-27.989 77.141-51.883 142.677-53.248 146.091s32.767 6.144 82.603 6.144h85.333l27.307-77.141c36.181-102.4 44.373-128.341 40.96-130.389-0.683-1.365-31.403-20.48-66.901-43.008l-64.853-40.277-51.2 138.581z"></path>
</svg>
