<?xml version="1.0" encoding="UTF-8"?>
<!-- Created with Inkscape (http://www.inkscape.org/) -->
<svg width="500" height="125" version="1.1" viewBox="0 0 500 125" xmlns="http://www.w3.org/2000/svg" xmlns:xlink="http://www.w3.org/1999/xlink">
 <g transform="scale(1.0083 .99175)" fill="#2dbed0" stroke-width="1.1016" aria-label="Û">
  <path d="m365.61 35.976h10.179l7.5572-7.3259 7.5572 7.3259h10.179v-0.61692l-11.104-14.189h-13.264l-11.104 14.189zm17.891 59.995c13.726 0 22.44-8.6368 22.44-21.438v-33.391h-14.112v33.313c0 5.3209-2.9304 8.2513-8.3284 8.2513-5.398 0-8.3284-2.9304-8.3284-8.2513v-33.313h-14.112v33.391c0 12.801 8.7139 21.438 22.44 21.438z"/>
 </g>
 <g transform="scale(1.0083 .99175)" fill="#fff" stroke-width="1.1016" aria-label="AMON SUL">
  <path d="m75.079 45.342h-6.1692l-25.371 53.749v0.77114h15.192l3.0075-6.8632h20.358l3.0846 6.8632h15.192v-0.77114zm-3.0846 22.286 4.8582 13.187h-9.9478z"/>
  <path d="m155.43 45.728-22.132 23.366-22.209-23.366h-5.7065v54.134h14.112v-14.96l-0.23134-11.953 13.495 13.803h1.0025l13.572-13.803-0.30846 11.953v14.96h14.112v-54.134z"/>
  <path d="m198.15 100.71c16.58 0 28.301-11.49 28.301-27.838 0-16.348-11.721-27.838-28.301-27.838-16.58 0-28.301 11.49-28.301 27.838 0 16.348 11.721 27.838 28.301 27.838zm0-13.418c-8.3284 0-13.881-5.7836-13.881-14.42 0-8.7139 5.5522-14.42 13.881-14.42 8.3284 0 13.881 5.7836 13.881 14.42s-5.5522 14.42-13.881 14.42z"/>
  <path d="m267.94 45.882v16.888l0.23134 9.5622-27.299-26.682h-5.7065v54.211h13.881v-17.659l-0.15423-9.7164 27.221 27.53h5.7065v-54.134z"/>
  <path d="m330.94 100.71c13.109 0 22.055-6.709 22.055-16.734 0-9.6393-5.8607-15.808-21.515-17.351-6.2463-0.61692-8.2512-2.005-8.2512-4.704 0-2.8532 2.5448-4.6269 7.2488-4.6269 4.6269 0 7.403 2.005 7.403 5.398h13.572c0-10.565-8.5597-17.659-21.129-17.659-12.57 0-21.129 6.709-21.129 16.425 0 9.0995 5.1667 15.731 19.896 17.351 6.3234 0.69403 9.6393 1.6965 9.6393 4.7811 0 3.0075-2.9304 4.7811-7.9428 4.7811-5.398 0-8.3284-2.1592-8.3284-5.8607h-13.804c0 11.413 8.3284 18.199 22.286 18.199z"/>
  <path d="m383.54 100.71c13.726 0 22.44-8.6368 22.44-21.438v-33.391h-14.112v33.313c0 5.3209-2.9304 8.2513-8.3284 8.2513-5.398 0-8.3284-2.9304-8.3284-8.2513v-33.313h-14.112v33.391c0 12.801 8.7139 21.438 22.44 21.438z"/>
  <path d="m431.19 87.215v-41.333h-14.112v53.98h33.622v-12.647z"/>
 </g>
</svg>
